{
  "accessors": [
    {
      "bufferView": 2,
      "componentType": 5126,
      "count": 897,
      "max": [
        10.62736988067627,
        20.389530181884766,
        173.0
      ],
      "min": [
        -10.384288787841797,
        -11.258370399475098,
        137.41090393066406
      ],
      "type": "VEC3"
    },
    {
      "bufferView": 2,
      "byteOffset": 10764,
      "componentType": 5126,
      "count": 897,
      "max": [
        0.9999186992645264,
        0.999872088432312,
        0.7452648282051086
      ],
      "min": [
        -0.9997871518135071,
        -0.9999655485153198,
        -0.9963580965995789
      ],
      "type": "VEC3"
    },
    {
      "bufferView": 1,
      "componentType": 5126,
      "count": 897,
      "max": [
        0.026336999610066414,
        0.6860349774360657
      ],
      "min": [
        0.02587899938225746,
        0.6855469942092896
      ],
      "type": "VEC2"
    },
    {
      "bufferView": 0,
      "componentType": 5125,
      "count": 5028,
      "type": "SCALAR"
    },
    {
      "bufferView": 2,
      "byteOffset": 21528,
      "componentType": 5126,
      "count": 207,
      "max": [
        9.13994312286377,
        1.9425859451293945,
        170.16990661621094
      ],
      "min": [
        -9.13994312286377,
        -10.02357006072998,
        163.68899536132813
      ],
      "type": "VEC3"
    },
    {
      "bufferView": 2,
      "byteOffset": 24012,
      "componentType": 5126,
      "count": 207,
      "max": [
        0.9997773766517639,
        0.25380611419677734,
        0.9853224158287048
      ],
      "min": [
        -0.9997794032096863,
        -0.9993410110473633,
        -0.9957218170166016
      ],
      "type": "VEC3"
    },
    {
      "bufferView": 1,
      "byteOffset": 7176,
      "componentType": 5126,
      "count": 207,
      "max": [
        0.03179899975657463,
        0.6521000266075134
      ],
      "min": [
        0.016510000452399254,
        0.6459959745407104
      ],
      "type": "VEC2"
    },
    {
      "bufferView": 0,
      "byteOffset": 20112,
      "componentType": 5125,
      "count": 822,
      "type": "SCALAR"
    },
    {
      "bufferView": 2,
      "byteOffset": 26496,
      "componentType": 5126,
      "count": 285,
      "max": [
        5.633664131164551,
        -7.726705074310303,
        169.6180877685547
      ],
      "min": [
        -5.633664131164551,
        -10.057990074157715,
        164.32440185546875
      ],
      "type": "VEC3"
    },
    {
      "bufferView": 2,
      "byteOffset": 29916,
      "componentType": 5126,
      "count": 285,
      "max": [
        0.999051570892334,
        0.21589091420173645,
        0.9892249703407288
      ],
      "min": [
        -0.9990500211715698,
        -0.999344527721405,
        -0.9339259266853333
      ],
      "type": "VEC3"
    },
    {
      "bufferView": 1,
      "byteOffset": 8832,
      "componentType": 5126,
      "count": 285,
      "max": [
        0.984375,
        0.9915850162506104
      ],
      "min": [
        0.5449219942092896,
        0.006347999908030033
      ],
      "type": "VEC2"
    },
    {
      "bufferView": 0,
      "byteOffset": 23400,
      "componentType": 5125,
      "count": 1392,
      "type": "SCALAR"
    },
    {
      "bufferView": 2,
      "byteOffset": 33336,
      "componentType": 5126,
      "count": 3814,
      "max": [
        25.285259246826172,
        24.654150009155273,
        181.79080200195313
      ],
      "min": [
        -25.2938232421875,
        -22.605649948120117,
        141.74559020996094
      ],
      "type": "VEC3"
    },
    {
      "bufferView": 2,
      "byteOffset": 79104,
      "componentType": 5126,
      "count": 3814,
      "max": [
        1.0,
        1.0,
        1.0
      ],
      "min": [
        -1.0,
        -1.0,
        -1.0
      ],
      "type": "VEC3"
    },
    {
      "bufferView": 1,
      "byteOffset": 11112,
      "componentType": 5126,
      "count": 3814,
      "max": [
        0.9951170086860657,
        0.9940490126609802
      ],
      "min": [
        0.006335999816656113,
        0.020020000636577606
      ],
      "type": "VEC2"
    },
    {
      "bufferView": 0,
      "byteOffset": 28968,
      "componentType": 5125,
      "count": 10626,
      "type": "SCALAR"
    }
  ],
  "asset": {
    "extras": {
      "author": "Tigerar1 (https://sketchfab.com/allanromanreyes)",
      "license": "SKETCHFAB Standard (https://sketchfab.com/licenses)",
      "source": "https://sketchfab.com/3d-models/akatsuki-hat-1242046ed83e4b6390aac1d5b37bb1cb",
      "title": "Akatsuki Hat"
    },
    "generator": "Sketchfab-15.83.0",
    "version": "2.0"
  },
  "bufferViews": [
    {
      "buffer": 0,
      "byteLength": 71472,
      "name": "floatBufferViews",
      "target": 34963
    },
    {
      "buffer": 0,
      "byteLength": 41624,
      "byteOffset": 71472,
      "byteStride": 8,
      "name": "floatBufferViews",
      "target": 34962
    },
    {
      "buffer": 0,
      "byteLength": 124872,
      "byteOffset": 113096,
      "byteStride": 12,
      "name": "floatBufferViews",
      "target": 34962
    }
  ],
  "buffers": [
    {
      "byteLength": 237968,
      "uri": "scene.bin"
    }
  ],
  "images": [
    {
      "uri": "textures/Akatsuki_Hat_Hair_Color_baseColor.png"
    },
    {
      "uri": "textures/MI_CHR_Hachigane_Konoha_01_baseColor.png"
    }
  ],
  "materials": [
    {
      "doubleSided": true,
      "name": "Akatsuki_Hat_Hair_Color",
      "pbrMetallicRoughness": {
        "baseColorTexture": {
          "index": 0
        },
        "metallicFactor": 0.0
      }
    },
    {
      "doubleSided": true,
      "name": "Akatsuki_Hat_Part_Color",
      "pbrMetallicRoughness": {
        "baseColorTexture": {
          "index": 0
        },
        "metallicFactor": 0.0
      }
    },
    {
      "doubleSided": true,
      "name": "MI_CHR_Hachigane_Konoha_01",
      "pbrMetallicRoughness": {
        "baseColorTexture": {
          "index": 1
        },
        "metallicFactor": 0.0
      }
    },
    {
      "doubleSided": true,
      "name": "MI_CHR_Man_Umbrella_Hat_01",
      "pbrMetallicRoughness": {
        "baseColorTexture": {
          "index": 0
        },
        "metallicFactor": 0.0
      }
    }
  ],
  "meshes": [
    {
      "name": "Object_0",
      "primitives": [
        {
          "attributes": {
            "NORMAL": 1,
            "POSITION": 0,
            "TEXCOORD_0": 2
          },
          "indices": 3,
          "material": 0,
          "mode": 4
        }
      ]
    },
    {
      "name": "Object_1",
      "primitives": [
        {
          "attributes": {
            "NORMAL": 5,
            "POSITION": 4,
            "TEXCOORD_0": 6
          },
          "indices": 7,
          "material": 1,
          "mode": 4
        }
      ]
    },
    {
      "name": "Object_2",
      "primitives": [
        {
          "attributes": {
            "NORMAL": 9,
            "POSITION": 8,
            "TEXCOORD_0": 10
          },
          "indices": 11,
          "material": 2,
          "mode": 4
        }
      ]
    },
    {
      "name": "Object_3",
      "primitives": [
        {
          "attributes": {
            "NORMAL": 13,
            "POSITION": 12,
            "TEXCOORD_0": 14
          },
          "indices": 15,
          "material": 3,
          "mode": 4
        }
      ]
    }
  ],
  "nodes": [
    {
      "children": [
        1
      ],
      "matrix": [
        1.0,
        0.0,
        0.0,
        0.0,
        0.0,
        2.220446049250313e-16,
        -1.0,
        0.0,
        0.0,
        1.0,
        2.220446049250313e-16,
        0.0,
        0.0,
        0.0,
        0.0,
        1.0
      ],
      "name": "Sketchfab_model"
    },
    {
      "children": [
        2,
        3,
        4,
        5
      ],
      "name": "Akatsuki Hat.obj.cleaner.materialmerger.gles"
    },
    {
      "mesh": 0,
      "name": "Object_2"
    },
    {
      "mesh": 1,
      "name": "Object_3"
    },
    {
      "mesh": 2,
      "name": "Object_4"
    },
    {
      "mesh": 3,
      "name": "Object_5"
    }
  ],
  "samplers": [
    {
      "magFilter": 9729,
      "minFilter": 9987,
      "wrapS": 10497,
      "wrapT": 10497
    }
  ],
  "scene": 0,
  "scenes": [
    {
      "name": "Sketchfab_Scene",
      "nodes": [
        0
      ]
    }
  ],
  "textures": [
    {
      "sampler": 0,
      "source": 0
    },
    {
      "sampler": 0,
      "source": 1
    }
  ]
}
