{
  "accessors": [
    {
      "bufferView": 2,
      "componentType": 5126,
      "count": 2043,
      "max": [
        0.13040311634540558,
        0.15648752450942993,
        0.19285115599632263
      ],
      "min": [
        -0.13040311634540558,
        -0.15648749470710754,
        -0.19285115599632263
      ],
      "type": "VEC3"
    },
    {
      "bufferView": 2,
      "byteOffset": 24516,
      "componentType": 5126,
      "count": 2043,
      "max": [
        0.9996694922447205,
        0.9999619722366333,
        0.9985790848731995
      ],
      "min": [
        -0.9993296265602112,
        -0.9999948740005493,
        -0.9985790848731995
      ],
      "type": "VEC3"
    },
    {
      "bufferView": 1,
      "componentType": 5126,
      "count": 2043,
      "max": [
        0.9035454392433167,
        0.9748042225837708
      ],
      "min": [
        0.007169446907937527,
        0.030004948377609253
      ],
      "type": "VEC2"
    },
    {
      "bufferView": 0,
      "componentType": 5125,
      "count": 9948,
      "type": "SCALAR"
    },
    {
      "bufferView": 2,
      "byteOffset": 49032,
      "componentType": 5126,
      "count": 2043,
      "max": [
        0.13090309500694275,
        0.15698747336864471,
        0.1933436542749405
      ],
      "min": [
        -0.13090184330940247,
        -0.15698283910751343,
        -0.1933436542749405
      ],
      "type": "VEC3"
    },
    {
      "bufferView": 2,
      "byteOffset": 73548,
      "componentType": 5126,
      "count": 2043,
      "max": [
        0.9998254776000977,
        0.999998927116394,
        0.999656081199646
      ],
      "min": [
        -0.999873697757721,
        -0.9999974370002747,
        -0.9996765851974487
      ],
      "type": "VEC3"
    },
    {
      "bufferView": 1,
      "byteOffset": 16344,
      "componentType": 5126,
      "count": 2043,
      "max": [
        0.9035454392433167,
        0.9748042225837708
      ],
      "min": [
        0.007169446907937527,
        0.030004948377609253
      ],
      "type": "VEC2"
    },
    {
      "bufferView": 0,
      "byteOffset": 39792,
      "componentType": 5125,
      "count": 9948,
      "type": "SCALAR"
    }
  ],
  "asset": {
    "extras": {
      "author": "Mr.Lime (https://sketchfab.com/Mr_Lime_2)",
      "license": "CC-BY-4.0 (http://creativecommons.org/licenses/by/4.0/)",
      "source": "https://sketchfab.com/3d-models/gawr-gura-shark-hat-d55c74e5e65d4004895535d0139dc979",
      "title": "Gawr Gura shark hat"
    },
    "generator": "Sketchfab-14.81.0",
    "version": "2.0"
  },
  "bufferViews": [
    {
      "buffer": 0,
      "byteLength": 79584,
      "name": "floatBufferViews",
      "target": 34963
    },
    {
      "buffer": 0,
      "byteLength": 32688,
      "byteOffset": 79584,
      "byteStride": 8,
      "name": "floatBufferViews",
      "target": 34962
    },
    {
      "buffer": 0,
      "byteLength": 98064,
      "byteOffset": 112272,
      "byteStride": 12,
      "name": "floatBufferViews",
      "target": 34962
    }
  ],
  "buffers": [
    {
      "byteLength": 210336,
      "uri": "scene.bin"
    }
  ],
  "extensionsUsed": [
    "KHR_materials_unlit"
  ],
  "images": [
    {
      "uri": "textures/Hood_baseColor.png"
    }
  ],
  "materials": [
    {
      "doubleSided": true,
      "extensions": {
        "KHR_materials_unlit": {}
      },
      "name": "Hood",
      "pbrMetallicRoughness": {
        "baseColorTexture": {
          "index": 0
        },
        "metallicFactor": 0.0
      }
    },
    {
      "extensions": {
        "KHR_materials_unlit": {}
      },
      "name": "Outline",
      "pbrMetallicRoughness": {
        "baseColorFactor": [
          0.0,
          0.0,
          0.0,
          1.0
        ],
        "metallicFactor": 0.0
      }
    }
  ],
  "meshes": [
    {
      "name": "Object_0",
      "primitives": [
        {
          "attributes": {
            "NORMAL": 1,
            "POSITION": 0,
            "TEXCOORD_0": 2
          },
          "indices": 3,
          "material": 0,
          "mode": 4
        }
      ]
    },
    {
      "name": "Object_1",
      "primitives": [
        {
          "attributes": {
            "NORMAL": 5,
            "POSITION": 4,
            "TEXCOORD_0": 6
          },
          "indices": 7,
          "material": 1,
          "mode": 4
        }
      ]
    }
  ],
  "nodes": [
    {
      "children": [
        1
      ],
      "matrix": [
        1.0,
        0.0,
        0.0,
        0.0,
        0.0,
        2.220446049250313e-16,
        -1.0,
        0.0,
        0.0,
        1.0,
        2.220446049250313e-16,
        0.0,
        0.0,
        0.0,
        0.0,
        1.0
      ],
      "name": "Sketchfab_model"
    },
    {
      "children": [
        2
      ],
      "name": "root"
    },
    {
      "children": [
        3
      ],
      "matrix": [
        1.0,
        0.0,
        0.0,
        0.0,
        0.0,
        2.220446049250313e-16,
        1.0,
        0.0,
        0.0,
        -1.0,
        2.220446049250313e-16,
        0.0,
        0.0,
        0.0,
        0.0,
        1.0
      ],
      "name": "GLTF_SceneRootNode"
    },
    {
      "children": [
        4,
        5
      ],
      "name": "Hood_3"
    },
    {
      "mesh": 0,
      "name": "Object_4"
    },
    {
      "mesh": 1,
      "name": "Object_5"
    }
  ],
  "samplers": [
    {
      "magFilter": 9729,
      "minFilter": 9987,
      "wrapS": 10497,
      "wrapT": 10497
    }
  ],
  "scene": 0,
  "scenes": [
    {
      "name": "Sketchfab_Scene",
      "nodes": [
        0
      ]
    }
  ],
  "textures": [
    {
      "sampler": 0,
      "source": 0
    }
  ]
}
