{
  "accessors": [
    {
      "bufferView": 2,
      "componentType": 5126,
      "count": 15208,
      "max": [
        3.4227986335754395,
        6.1846022605896,
        0.4278789758682251
      ],
      "min": [
        -3.452781915664673,
        -0.5747303366661072,
        -1.220024824142456
      ],
      "type": "VEC3"
    },
    {
      "bufferView": 2,
      "byteOffset": 182496,
      "componentType": 5126,
      "count": 15208,
      "max": [
        0.9998358488082886,
        0.9998073577880859,
        0.9999880790710449
      ],
      "min": [
        -0.9997645020484924,
        -0.9998232126235962,
        -0.9994823336601257
      ],
      "type": "VEC3"
    },
    {
      "bufferView": 1,
      "componentType": 5126,
      "count": 15208,
      "max": [
        0.875,
        1.0000004768371582
      ],
      "min": [
        0.1249997466802597,
        -9.16618603241659e-08
      ],
      "type": "VEC2"
    },
    {
      "bufferView": 0,
      "componentType": 5125,
      "count": 47520,
      "type": "SCALAR"
    },
    {
      "bufferView": 2,
      "byteOffset": 364992,
      "componentType": 5126,
      "count": 7024,
      "max": [
        3.1154603958129883,
        5.889368057250977,
        0.13551002740859985
      ],
      "min": [
        -3.1285486221313477,
        -0.2654392719268799,
        -3.7639760971069336
      ],
      "type": "VEC3"
    },
    {
      "bufferView": 2,
      "byteOffset": 449280,
      "componentType": 5126,
      "count": 7024,
      "max": [
        0.9999459385871887,
        0.9998860359191895,
        0.9984894394874573
      ],
      "min": [
        -0.9998597502708435,
        -0.9998853206634521,
        -0.9980394840240479
      ],
      "type": "VEC3"
    },
    {
      "bufferView": 1,
      "byteOffset": 121664,
      "componentType": 5126,
      "count": 7024,
      "max": [
        1.0,
        1.0
      ],
      "min": [
        -6.661338147750939e-16,
        0.0
      ],
      "type": "VEC2"
    },
    {
      "bufferView": 0,
      "byteOffset": 190080,
      "componentType": 5125,
      "count": 27144,
      "type": "SCALAR"
    },
    {
      "bufferView": 2,
      "byteOffset": 533568,
      "componentType": 5126,
      "count": 48,
      "max": [
        1.40194833278656,
        4.763895034790039,
        -1.3999019861221313
      ],
      "min": [
        -1.4162830114364624,
        0.25763314962387085,
        -3.430077314376831
      ],
      "type": "VEC3"
    },
    {
      "bufferView": 2,
      "byteOffset": 534144,
      "componentType": 5126,
      "count": 48,
      "max": [
        0.5432576537132263,
        0.8286192417144775,
        0.9869554042816162
      ],
      "min": [
        -0.5432568788528442,
        -0.8286203145980835,
        -0.9869553446769714
      ],
      "type": "VEC3"
    },
    {
      "bufferView": 1,
      "byteOffset": 177856,
      "componentType": 5126,
      "count": 48,
      "max": [
        0.5389845371246338,
        0.9689843058586121
      ],
      "min": [
        0.38439226150512695,
        0.8143921494483948
      ],
      "type": "VEC2"
    },
    {
      "bufferView": 0,
      "byteOffset": 298656,
      "componentType": 5125,
      "count": 72,
      "type": "SCALAR"
    },
    {
      "bufferView": 2,
      "byteOffset": 534720,
      "componentType": 5126,
      "count": 64,
      "max": [
        1.40194833278656,
        4.763895034790039,
        -1.3999019861221313
      ],
      "min": [
        -1.4162830114364624,
        0.25763314962387085,
        -3.430077314376831
      ],
      "type": "VEC3"
    },
    {
      "bufferView": 2,
      "byteOffset": 535488,
      "componentType": 5126,
      "count": 64,
      "max": [
        0.8395709991455078,
        0.8286171555519104,
        0.13516755402088165
      ],
      "min": [
        -0.8395708799362183,
        -0.8286190629005432,
        -0.1351677030324936
      ],
      "type": "VEC3"
    },
    {
      "bufferView": 1,
      "byteOffset": 178240,
      "componentType": 5126,
      "count": 64,
      "max": [
        0.8804214000701904,
        0.9653043746948242
      ],
      "min": [
        0.12052513659000397,
        0.19498905539512634
      ],
      "type": "VEC2"
    },
    {
      "bufferView": 0,
      "byteOffset": 298944,
      "componentType": 5125,
      "count": 96,
      "type": "SCALAR"
    }
  ],
  "asset": {
    "extras": {
      "author": "dimon63ht (https://sketchfab.com/dimon63ht)",
      "license": "CC-BY-4.0 (http://creativecommons.org/licenses/by/4.0/)",
      "source": "https://sketchfab.com/3d-models/samurai-hat-b210d821cbf94e31af941790df970c67",
      "title": "Samurai Hat"
    },
    "generator": "Sketchfab-14.15.0",
    "version": "2.0"
  },
  "bufferViews": [
    {
      "buffer": 0,
      "byteLength": 299328,
      "name": "floatBufferViews",
      "target": 34963
    },
    {
      "buffer": 0,
      "byteLength": 178752,
      "byteOffset": 299328,
      "byteStride": 8,
      "name": "floatBufferViews",
      "target": 34962
    },
    {
      "buffer": 0,
      "byteLength": 536256,
      "byteOffset": 478080,
      "byteStride": 12,
      "name": "floatBufferViews",
      "target": 34962
    }
  ],
  "buffers": [
    {
      "byteLength": 1014336,
      "uri": "scene.bin"
    }
  ],
  "images": [
    {
      "uri": "textures/Material.003_baseColor.jpeg"
    }
  ],
  "materials": [
    {
      "doubleSided": true,
      "name": "Material.001",
      "pbrMetallicRoughness": {
        "baseColorFactor": [
          0.0145094,
          0.0145094,
          0.0145094,
          1.0
        ],
        "metallicFactor": 0.0,
        "roughnessFactor": 0.9967555995287265
      }
    },
    {
      "doubleSided": true,
      "name": "Material.002",
      "pbrMetallicRoughness": {
        "baseColorFactor": [
          0.00901806,
          0.00901806,
          0.00901806,
          1.0
        ],
        "metallicFactor": 0.0
      }
    },
    {
      "doubleSided": true,
      "name": "Material.004",
      "pbrMetallicRoughness": {
        "baseColorFactor": [
          0.0356013,
          0.0368895,
          0.0382044,
          1.0
        ],
        "metallicFactor": 0.0
      }
    },
    {
      "doubleSided": true,
      "name": "Material.003",
      "pbrMetallicRoughness": {
        "baseColorTexture": {
          "index": 0
        },
        "metallicFactor": 0.0,
        "roughnessFactor": 0.8211145618000169
      }
    }
  ],
  "meshes": [
    {
      "name": "Cube.007_Material.001_0",
      "primitives": [
        {
          "attributes": {
            "NORMAL": 1,
            "POSITION": 0,
            "TEXCOORD_0": 2
          },
          "indices": 3,
          "material": 0,
          "mode": 4
        }
      ]
    },
    {
      "name": "Cube.007_Material.002_0",
      "primitives": [
        {
          "attributes": {
            "NORMAL": 5,
            "POSITION": 4,
            "TEXCOORD_0": 6
          },
          "indices": 7,
          "material": 1,
          "mode": 4
        }
      ]
    },
    {
      "name": "Cube.007_Material.004_0",
      "primitives": [
        {
          "attributes": {
            "NORMAL": 9,
            "POSITION": 8,
            "TEXCOORD_0": 10
          },
          "indices": 11,
          "material": 2,
          "mode": 4
        }
      ]
    },
    {
      "name": "Cube.007_Material.003_0",
      "primitives": [
        {
          "attributes": {
            "NORMAL": 13,
            "POSITION": 12,
            "TEXCOORD_0": 14
          },
          "indices": 15,
          "material": 3,
          "mode": 4
        }
      ]
    }
  ],
  "nodes": [
    {
      "children": [
        1
      ],
      "matrix": [
        1.0,
        -1.608122622957729e-16,
        -1.6081226229577294e-16,
        0.0,
        -1.6081226229577292e-16,
        2.220446049250313e-16,
        -1.0,
        0.0,
        1.6081226229577292e-16,
        1.0,
        2.2204460492503128e-16,
        0.0,
        0.0,
        0.0,
        0.0,
        1.0
      ],
      "name": "Sketchfab_model"
    },
    {
      "children": [
        2
      ],
      "matrix": [
        0.009999999776482582,
        0.0,
        0.0,
        0.0,
        0.0,
        0.0,
        0.009999999776482582,
        0.0,
        0.0,
        -0.009999999776482582,
        0.0,
        0.0,
        0.0,
        0.0,
        0.0,
        1.0
      ],
      "name": "ccc441421a0841f0bb2b490a67fff30e.fbx"
    },
    {
      "children": [
        3
      ],
      "name": "RootNode"
    },
    {
      "children": [
        4,
        5,
        6,
        7
      ],
      "matrix": [
        54.325107344404486,
        -5.477907845595689e-06,
        -83.95703804862262,
        0.0,
        -82.86181717189544,
        16.099595958863166,
        -53.6164365184104,
        0.0,
        13.516745810670372,
        98.69550653378973,
        8.74611758029802,
        0.0,
        241.0786590576172,
        14.41773796081543,
        155.3743896484375,
        1.0
      ],
      "name": "Cube.007"
    },
    {
      "mesh": 0,
      "name": "Cube.007_Material.001_0"
    },
    {
      "mesh": 1,
      "name": "Cube.007_Material.002_0"
    },
    {
      "mesh": 2,
      "name": "Cube.007_Material.004_0"
    },
    {
      "mesh": 3,
      "name": "Cube.007_Material.003_0"
    }
  ],
  "samplers": [
    {
      "magFilter": 9729,
      "minFilter": 9987,
      "wrapS": 10497,
      "wrapT": 10497
    }
  ],
  "scene": 0,
  "scenes": [
    {
      "name": "Sketchfab_Scene",
      "nodes": [
        0
      ]
    }
  ],
  "textures": [
    {
      "sampler": 0,
      "source": 0
    }
  ]
}
